# xmcd
#
# Track frame offsets: 
#        150
#        25987
#        51397
#        76120
#        94315
#        123842
#        133978
#        164900
#        187232
#        211249
#        231607
#        249652
#        271038
#        298137
#        314682
#        322372
#
# Disc length: 4620 seconds
#
# Revision: 0
# Processed by: cddbd v1.5.2PL0 Copyright (c) Steve Scherf et al.
# Submitted via: ExactAudioCopyFreeDBPlugin 1.0
#
DISCID=07120a10
DTITLE=Virgin Steele - The Marriage Of Heaven And Hell - Part One
DYEAR=1994
DGENRE=Power Metal
TTITLE0=I Will Come For You
TTITLE1=Weeping Of The Spirits
TTITLE2=Blood And Gasoline
TTITLE3=Self Crucifixion
TTITLE4=Last Supper
TTITLE5=Warrior's Lament
TTITLE6=Trail Of Tears
TTITLE7=The Raven Song
TTITLE8=Forever Will I Roam
TTITLE9=I Wake Up Screaming
TTITLE10=House Of Dust
TTITLE11=Blood Of The Saints
TTITLE12=Life Among The Ruins
TTITLE13=The Marriage Of Heaven And Hell
TTITLE14=Angela's Castle (bonus track)
TTITLE15=The Sword Of Damocles (bonus track)
EXTD=
EXTT0=
EXTT1=
EXTT2=
EXTT3=
EXTT4=
EXTT5=
EXTT6=
EXTT7=
EXTT8=
EXTT9=
EXTT10=
EXTT11=
EXTT12=
EXTT13=
EXTT14=
EXTT15=
PLAYORDER=
